<mxfile host="65bd71144e">
    <diagram id="pIaEtrtLPv3HG8r1JEND" name="Page-1">
        <mxGraphModel dx="594" dy="561" grid="1" gridSize="10" guides="1" tooltips="1" connect="1" arrows="1" fold="1" page="1" pageScale="1" pageWidth="850" pageHeight="1100" math="0" shadow="0">
            <root>
                <mxCell id="0"/>
                <mxCell id="1" parent="0"/>
                <mxCell id="2" value="" style="rounded=0;whiteSpace=wrap;html=1;fillColor=#FFD9EB;" parent="1" vertex="1">
                    <mxGeometry x="80" y="80" width="430" height="310" as="geometry"/>
                </mxCell>
                <mxCell id="3" value="eligibility checker" style="rounded=0;whiteSpace=wrap;html=1;fillColor=#d80073;fontColor=#ffffff;strokeColor=#A50040;" parent="1" vertex="1">
                    <mxGeometry x="80" y="80" width="430" height="40" as="geometry"/>
                </mxCell>
                <mxCell id="6" value="eligibilty" style="labelPosition=center;verticalLabelPosition=middle;align=center;html=1;shape=mxgraph.basic.button;dx=10;fillColor=#d80073;fontColor=#ffffff;strokeColor=#A50040;" parent="1" vertex="1">
                    <mxGeometry x="105" y="330" width="100" height="40" as="geometry"/>
                </mxCell>
                <mxCell id="7" value="Check if your eligible here" style="text;html=1;align=center;verticalAlign=middle;whiteSpace=wrap;rounded=0;strokeColor=none;fontColor=#000000;strokeWidth=5;fontSize=15;" vertex="1" parent="1">
                    <mxGeometry x="95" y="130" width="195" height="30" as="geometry"/>
                </mxCell>
                <mxCell id="8" value="checking eligibiltiy...." style="text;html=1;strokeColor=none;fillColor=none;align=center;verticalAlign=middle;whiteSpace=wrap;rounded=0;fontColor=#000000;" vertex="1" parent="1">
                    <mxGeometry x="95" y="290" width="130" height="30" as="geometry"/>
                </mxCell>
                <mxCell id="9" value="date (day):" style="text;html=1;strokeColor=none;fillColor=none;align=center;verticalAlign=middle;whiteSpace=wrap;rounded=0;fontColor=#000000;" vertex="1" parent="1">
                    <mxGeometry x="65" y="235" width="120" height="30" as="geometry"/>
                </mxCell>
                <mxCell id="11" value="&lt;span&gt;Monday&lt;/span&gt;" style="rounded=0;whiteSpace=wrap;html=1;fontColor=#000000;strokeColor=#000000;fillColor=#EBEBEB;align=center;" vertex="1" parent="1">
                    <mxGeometry x="160" y="240" width="70" height="20" as="geometry"/>
                </mxCell>
                <mxCell id="12" value="your age:" style="text;html=1;strokeColor=none;fillColor=none;align=center;verticalAlign=middle;whiteSpace=wrap;rounded=0;fontColor=#000000;" vertex="1" parent="1">
                    <mxGeometry x="95" y="260" width="60" height="30" as="geometry"/>
                </mxCell>
                <mxCell id="13" value="" style="rounded=1;whiteSpace=wrap;html=1;fontColor=#000000;strokeColor=#000000;fillColor=none;" vertex="1" parent="1">
                    <mxGeometry x="160" y="265" width="120" height="20" as="geometry"/>
                </mxCell>
                <mxCell id="15" value="Actor" style="shape=umlActor;verticalLabelPosition=bottom;verticalAlign=top;outlineConnect=0;fontSize=15;fontColor=#000000;strokeColor=#000000;strokeWidth=5;fillColor=none;html=1;" vertex="1" parent="1">
                    <mxGeometry x="130" y="160" width="40" height="50" as="geometry"/>
                </mxCell>
            </root>
        </mxGraphModel>
    </diagram>
</mxfile>